# xmcd
#
# Track frame offsets: 
#        150
#        21979
#        43372
#        64756
#        83965
#        98786
#        121899
#        142661
#        166690
#        188615
#
# Disc length: 2825 seconds
#
# Revision: 3
# Processed by: cddbd v1.5.2PL0 Copyright (c) Steve Scherf et al.
# Submitted via: ExactAudioCopy v0.99pb5
#
DISCID=7b0b070a
DTITLE=Lovemongers - Whirlygig
DYEAR=1997
DGENRE=Rock
TTITLE0=City On The Hill
TTITLE1=Miracle Girl
TTITLE2=Two Black Lambs
TTITLE3=No School Today
TTITLE4=The Vegas Game
TTITLE5=Kiss
TTITLE6=Runaway
TTITLE7=Elysian
TTITLE8=Heavy Sedation
TTITLE9=Sand
EXTD=
EXTT0=
EXTT1=
EXTT2=
EXTT3=
EXTT4=
EXTT5=
EXTT6=
EXTT7=
EXTT8=
EXTT9=
PLAYORDER=
